<?xml version="1.0" standalone="no"?><!DOCTYPE svg PUBLIC "-//W3C//DTD SVG 1.1//EN" "http://www.w3.org/Graphics/SVG/1.1/DTD/svg11.dtd"><svg class="icon" width="32px" height="32.00px" viewBox="0 0 1024 1024" version="1.1" xmlns="http://www.w3.org/2000/svg"><path fill="#6c757d" d="M512 8C233.6 8 8 233.6 8 512S233.6 1016 512 1016 1016 790.4 1016 512 790.4 8 512 8zM512 976C256 976 48 768 48 512S256 48 512 48s464 208 464 464-208 464-464 464zM454.4 513.6c-8 0-17.6 1.6-25.6 3.2-64 12.8-105.6 65.6-96 118.4 9.6 52.8 68.8 86.4 132.8 73.6 64-12.8 105.6-65.6 96-118.4-9.6-46.4-56-76.8-107.2-76.8z m-32 142.4c-6.4 3.2-12.8 4.8-20.8 4.8-11.2 1.6-22.4-4.8-27.2-14.4-6.4-14.4 3.2-33.6 22.4-43.2 19.2-9.6 41.6-4.8 48 9.6 6.4 14.4-3.2 33.6-22.4 43.2z m46.4-44.8c-11.2 0-20.8-8-20.8-19.2v-1.6c0-11.2 8-19.2 19.2-19.2s20.8 8 20.8 19.2-8 19.2-19.2 20.8z m332.8-321.6c-49.6-48-118.4-52.8-145.6-52.8h-12.8c-11.2 0-20.8 9.6-20.8 20.8v11.2c0 11.2 9.6 20.8 20.8 20.8h1.6s91.2-9.6 129.6 46.4c38.4 56 22.4 126.4 22.4 126.4-1.6 9.6 4.8 19.2 14.4 20.8h14.4c11.2 0 22.4-9.6 24-20.8-4.8 0 16-112-48-172.8zM662.4 492.8c0-6.4 56-59.2 0-92.8-33.6-19.2-84.8-9.6-118.4 0-12.8 4.8-25.6 8-38.4 11.2 44.8-78.4-19.2-102.4-51.2-102.4-76.8 1.6-278.4 172.8-278.4 281.6s134.4 198.4 300.8 198.4S776 700.8 776 592c0-92.8-113.6-92.8-113.6-99.2zM484.8 728c-12.8 1.6-27.2 3.2-40 3.2-88 0-160-41.6-169.6-102.4-9.6-70.4 68.8-139.2 174.4-153.6 105.6-14.4 200 30.4 209.6 99.2 9.6 70.4-68.8 139.2-174.4 153.6zM721.6 457.6c1.6 0 3.2 1.6 4.8 0h12.8c8 0 14.4-6.4 16-14.4 0 0 14.4-59.2-19.2-91.2-16-14.4-38.4-22.4-60.8-22.4-6.4 0-12.8 0-20.8 1.6s-14.4 8-14.4 16v4.8c0 6.4 4.8 12.8 12.8 12.8h1.6s38.4-4.8 57.6 17.6c19.2 22.4 4.8 59.2 4.8 59.2-1.6 8 0 12.8 4.8 16z" /></svg>