<?xml version="1.0" standalone="no"?><!DOCTYPE svg PUBLIC "-//W3C//DTD SVG 1.1//EN" "http://www.w3.org/Graphics/SVG/1.1/DTD/svg11.dtd"><svg class="icon" width="32px" height="32.00px" viewBox="0 0 1024 1024" version="1.1" xmlns="http://www.w3.org/2000/svg"><path fill="#6c757d" d="M512 8C233.6 8 8 233.6 8 512S233.6 1016 512 1016 1016 790.4 1016 512 790.4 8 512 8zM512 976C256 976 48 768 48 512S256 48 512 48s464 208 464 464-208 464-464 464zM243.2 251.2h537.6c36.8 0 67.2 28.8 67.2 65.6L512 497.6 176 315.2c1.6-35.2 30.4-64 67.2-64zM176 385.6v323.2c0 35.2 30.4 65.6 67.2 65.6h537.6c36.8 0 67.2-28.8 67.2-65.6V385.6L520 558.4c-4.8 1.6-11.2 1.6-16 0L176 385.6z" /></svg>