<?xml version="1.0" standalone="no"?><!DOCTYPE svg PUBLIC "-//W3C//DTD SVG 1.1//EN" "http://www.w3.org/Graphics/SVG/1.1/DTD/svg11.dtd"><svg class="icon" width="32px" height="32.00px" viewBox="0 0 1024 1024" version="1.1" xmlns="http://www.w3.org/2000/svg"><path fill="#6c757d" d="M512 8C233.6 8 8 233.6 8 512S233.6 1016 512 1016 1016 790.4 1016 512 790.4 8 512 8zM512 976C256 976 48 768 48 512S256 48 512 48s464 208 464 464-208 464-464 464zM310.4 380.8c0 16 12.8 30.4 30.4 30.4s30.4-12.8 30.4-30.4-12.8-30.4-30.4-30.4-30.4 14.4-30.4 30.4z m161.6 0c0 16 12.8 30.4 30.4 30.4s30.4-12.8 30.4-30.4-12.8-30.4-30.4-30.4-30.4 14.4-30.4 30.4zM656 425.6c-11.2-105.6-113.6-188.8-240-188.8-132.8 0-240 92.8-240 208 0 67.2 38.4 129.6 97.6 168 6.4 3.2-22.4 64-14.4 67.2 12.8 8 60.8-43.2 73.6-40 25.6 8 54.4 12.8 84.8 12.8 14.4 0 30.4-1.6 43.2-3.2 27.2 64 100.8 108.8 187.2 108.8 24 0 46.4-3.2 67.2-9.6 6.4-3.2 54.4 40 60.8 36.8 11.2-3.2-19.2-52.8-9.6-57.6 49.6-30.4 81.6-80 81.6-134.4-3.2-89.6-86.4-163.2-192-168z m-83.2 126.4c-11.2 0-20.8-9.6-20.8-20.8 0-11.2 9.6-20.8 20.8-20.8s20.8 9.6 20.8 20.8c0 11.2-8 20.8-20.8 20.8zM448 592c0 6.4 0 11.2 1.6 17.6-11.2 1.6-20.8 3.2-32 3.2-27.2 0-54.4-4.8-78.4-12.8-3.2-1.6-11.2-3.2-16 0-11.2 8-25.6 24-25.6 24s4.8-11.2 6.4-28.8c1.6-8-11.2-12.8-12.8-14.4-46.4-30.4-75.2-81.6-75.2-132.8 0-91.2 89.6-168 198.4-168 102.4 0 187.2 65.6 196.8 148.8C520 441.6 448 510.4 448 592z m251.2-40c-11.2 0-20.8-9.6-20.8-20.8 0-11.2 9.6-20.8 20.8-20.8 11.2 0 20.8 9.6 20.8 20.8 0 11.2-9.6 20.8-20.8 20.8z" /></svg>