<?xml version="1.0" standalone="no"?><!DOCTYPE svg PUBLIC "-//W3C//DTD SVG 1.1//EN" "http://www.w3.org/Graphics/SVG/1.1/DTD/svg11.dtd"><svg t="1643812165149" class="icon" viewBox="0 0 1024 1024" version="1.1" xmlns="http://www.w3.org/2000/svg" p-id="1584" xmlns:xlink="http://www.w3.org/1999/xlink" width="32" height="32"><defs><style type="text/css"></style></defs><path d="M896 174.933333v264.533334c0 209.066667-93.866667 337.066667-285.866667 396.8v-29.866667c149.333333-64 183.466667-166.4 183.466667-247.466667 0-17.066667 0-42.666667-4.266667-68.266666l-8.533333-34.133334H614.4V174.933333H896m-477.866667 0v264.533334c0 213.333333-93.866667 341.333333-290.133333 396.8v-38.4c145.066667-76.8 174.933333-170.666667 174.933333-238.933334 0-12.8 0-38.4-4.266666-68.266666l-4.266667-34.133334H128V174.933333h290.133333m520.533334-42.666666h-366.933334v366.933333h174.933334c4.266667 21.333333 4.266667 42.666667 4.266666 59.733333 0 102.4-64 174.933333-183.466666 217.6v115.2c247.466667-55.466667 371.2-204.8 371.2-452.266666V132.266667z m-477.866667 0H85.333333v366.933333h170.666667c4.266667 25.6 4.266667 46.933333 4.266667 59.733333 0 85.333333-59.733333 157.866667-174.933334 213.333334v119.466666c251.733333-51.2 375.466667-204.8 375.466667-452.266666V132.266667z" p-id="1585" fill="#6c757d"></path></svg>