<svg xmlns="http://www.w3.org/2000/svg" xmlns:xlink="http://www.w3.org/1999/xlink" width="288" height="96"><defs><linearGradient id="e" x1=".624" y1="-.225" x2=".357" y2="1.335" gradientUnits="objectBoundingBox"><stop offset="0" stop-color="#cae8ed"/><stop offset="1" stop-color="#fff"/></linearGradient><linearGradient id="a" x1=".537" y1=".679" x2=".354" y2=".348" gradientUnits="objectBoundingBox"><stop offset="0" stop-color="#fff"/><stop offset="1" stop-color="#fff" stop-opacity="0"/></linearGradient><linearGradient id="f" x1=".644" y1=".648" x2=".506" y2=".507" xlink:href="#a"/><linearGradient id="g" x1=".991" y1=".474" x2=".744" y2=".5" gradientUnits="objectBoundingBox"><stop offset="0" stop-color="#fff" stop-opacity=".698"/><stop offset="1" stop-color="#fff" stop-opacity="0"/></linearGradient><linearGradient id="h" x1=".083" y1=".515" x2=".541" y2=".496" gradientUnits="objectBoundingBox"><stop offset="0" stop-color="#cae8ed"/><stop offset="1" stop-color="#fff" stop-opacity="0"/></linearGradient><linearGradient id="i" x1=".443" y1=".497" x2="1.69" y2=".19" gradientUnits="objectBoundingBox"><stop offset="0" stop-color="#0e5e82"/><stop offset="1" stop-color="#fff" stop-opacity="0"/></linearGradient><clipPath id="b"><circle data-name="椭圆 2" cx="48" cy="48" r="48" transform="translate(482 195)" fill="#fff"/></clipPath><clipPath id="c"><path data-name="矩形 7" stroke="#707070" stroke-width=".069" d="M0 0h141.17v98.819H0z"/></clipPath><clipPath id="d"><path data-name="矩形 28" transform="translate(168 148)" fill="#fff" stroke="#707070" d="M0 0h96v96H0z"/></clipPath></defs><g data-name="404"><g data-name="蒙版组 2" transform="translate(-386 -195)" clip-path="url(#b)"><g data-name="组 83"><g data-name="组 56" clip-path="url(#c)" transform="translate(459.714 193.181)"><path data-name="矩形 6" fill="#509bd9" stroke="#707070" stroke-width=".069" d="M0 0h141.17v98.819H0z"/></g><g data-name="组 57" clip-path="url(#c)" transform="translate(459.714 193.181)"><path data-name="路径 128" d="m51.981 10.174-1.906 1.149h-4.83l-2.975 1.916h4.155l3.65 1.876 4.134-2.47h4.124l3.66-2.47-5.354 1.138Z" fill="#6ab1e2" stroke="#707070" stroke-width=".069"/></g><g data-name="组 58" clip-path="url(#c)" transform="translate(459.714 193.181)"><path data-name="路径 129" d="M10.789 27.175 0 23.474v27.237Z" fill="#e4f9fd" stroke="#707070" stroke-width=".069"/></g><g data-name="组 59" clip-path="url(#c)" transform="translate(459.714 193.181)"><path data-name="路径 130" d="m127.385 22.143 13.784 4.628.252 17.293-8.8-7.825Z" fill="#e4f9fd" stroke="#707070" stroke-width=".069"/></g><g data-name="组 60" clip-path="url(#c)" transform="translate(459.714 193.181)"><path data-name="矩形 11" fill="#86c2cc" stroke="#707070" stroke-width=".069" d="M0 57.123h141.17v41.695H0z"/></g><g data-name="组 61" clip-path="url(#c)" transform="translate(459.714 193.181)"><path data-name="矩形 13" fill="#86c2cc" stroke="#707070" stroke-width=".069" d="M0 71.906h141.17v26.913H0z"/></g><g data-name="组 64" clip-path="url(#c)" stroke="#707070" stroke-width=".069" transform="translate(459.714 193.181)"><path data-name="路径 131" d="m20.348 26.701 27.76-3.227L73.66 15.41h21.4l13.7 1.613 5.193-6.05h7.321l2.42 43.964H15.599Z" fill="#a3dce2"/><path data-name="路径 132" d="m61.036 54.774-10-2.894-7.22 1.906Z" fill="#388fa1"/><path data-name="路径 133" d="M73.66 15.408h21.4v39.527l-15.66-.817Z" fill="#9bd0d7"/><path data-name="路径 134" d="m48.109 23.474 3.741 29.4-16.084-27.963Z" fill="#9bd0d7"/><path data-name="路径 135" d="M108.761 17.021v21.347l6.06 1.815-.867-29.212Z" fill="#9bd0d7"/><path data-name="路径 136" d="m96.671 54.119-12.379-1.241-30.234 1.241-19.139-1.24-1.815 4.275h65.654Z" fill="#e4f9fd"/><g data-name="组 62"><path data-name="路径 137" d="M19.018 20.001 2.531 29.988-.756 54.501l23.1-21.639Z" fill="#86c2cc"/><path data-name="路径 138" d="m39.81 51.88-4.618-8.329V32.56a15.249 15.249 0 0 1-9.832-10.134l-6.352-2.425 2.118 12.554-2.118-2.571h-1.382v5.354L32.621 51.88Z" fill="#4da3b8"/><path data-name="路径 139" d="m34.768 57.124 5.042-5.243-5.042-3.1-6.655-6.383h-3.029l-7.462-7.058-8.587 10.894-8.151 10.89Z" fill="#388fa1"/><path data-name="路径 140" d="M17.625 35.344v-5.355L6.009 41.928l-8.168 15.2h4.236Z" fill="#e4f9fd"/></g><g data-name="组 63"><path data-name="路径 141" d="m136.803 38.57 9.68 4.336 4.033 14.218h-23.393l-8.47-21.327Z" fill="#388fa1"/><path data-name="路径 142" d="m121.274-2.773 4.84 15.73 6.857 11.5 3.832 14.117-14.117 1.811 9.176 4.84-4.739 11.9h-17.344l-4.9-16.386 14.578-28.588Z" fill="#86c2cc"/><path data-name="路径 143" d="m114.619 1.664-4.839 16.739 1.21 6.655-3.63 3.63-5.849 28.436h10.688l1.412-10.477-3.831-6.867 8.874-13.714 4.033-13.915-1.412-14.924Z" fill="#e4f9fd"/><path data-name="路径 144" d="m87.797 57.123 10.895-28.435 5.848 1.815 2.823-1.815 2.42 2.42-5.247 8.871 3.025 6.665-3.429 10.479Z" fill="#86c2cc"/></g></g><g data-name="组 71" clip-path="url(#c)" transform="translate(459.714 193.181)"><path data-name="路径 145" d="M87.293 39.104s-1.3.06-4.144-2.1 0 4.195 0 4.195l3.64-1.018Z" fill="#777342" stroke="#707070" stroke-width=".069"/><path data-name="路径 146" d="M59.503 57.154a14.424 14.424 0 0 1 1.664-3.358l1.049.877c-.001-.01-1.221-.081-2.713 2.481Z" fill="#635f36" stroke="#707070" stroke-width=".069"/><path data-name="路径 147" d="M56.115 52.878a14.382 14.382 0 0 1 .393-3.731l1.281.454s-1.17.362-1.674 3.277Z" fill="#635f36" stroke="#707070" stroke-width=".069"/><path data-name="路径 148" d="M52.899 50.71a14.116 14.116 0 0 1 1.5-3.438l1.089.817s-1.218-.001-2.589 2.621Z" fill="#635f36" stroke="#707070" stroke-width=".069"/><path data-name="路径 149" d="M50.72 47.302a14.521 14.521 0 0 1 2.551-2.753l.756 1.129c.002.01-1.149-.403-3.307 1.624Z" fill="#635f36" stroke="#707070" stroke-width=".069"/><path data-name="路径 150" d="M57.92 32.953s-4.427.2-4.255 3.791h.534s-.141-2.52 3.721-3.791Z" fill="#635f36" stroke="#707070" stroke-width=".069"/><path data-name="路径 151" d="M59.603 34.717s-4.226-1.341-5.293 2.109l.494.182s.736-2.412 4.799-2.291Z" fill="#635f36" stroke="#707070" stroke-width=".069"/><path data-name="路径 152" d="M86.477 35.464s3.65 2.511 1.6 5.465l-.454-.282s1.447-2.058-1.146-5.183Z" fill="#635f36" stroke="#707070" stroke-width=".069"/><path data-name="路径 153" d="M84.111 36.069s4.3 1.1 3.378 4.588l-.524-.111c.005 0 .661-2.43-2.854-4.477Z" fill="#635f36" stroke="#707070" stroke-width=".069"/><path data-name="路径 154" d="M85.71 47.938s1.059 2.047.565 2.773a4.858 4.858 0 0 0-.986-1.907Z" fill="#635f36" stroke="#707070" stroke-width=".069"/><g data-name="组 70"><path data-name="路径 155" d="M51.224 41.937a25.351 25.351 0 0 0 6.292 8.964c2.481 2.178 7.905-13.22 7.905-13.22s-4.84 1.129-8.026-.676c-2.873-1.622-6.171 4.932-6.171 4.932Z" fill="#635f36" stroke="#707070" stroke-width=".069"/><g data-name="组 65" transform="translate(51.033 36.432)" stroke="#707070" stroke-width=".069"><circle data-name="椭圆 3" cx="4.235" cy="4.235" r="4.235" fill="#e3e2d6"/><circle data-name="椭圆 4" cx="1.744" cy="1.744" r="1.744" transform="translate(3.61 1.765)" fill="#c0bfab"/><circle data-name="椭圆 5" cx="1.129" cy="1.129" r="1.129" transform="translate(4.225 2.38)" fill="#010400"/><circle data-name="椭圆 6" cx=".716" cy=".716" r=".716" transform="translate(3.287 3.166)" fill="#efeee4"/></g><path data-name="路径 156" d="M58.823 38.367s.524 3.771-5.939 5.929l5.254 2.652 4.82-5.707Z" fill="#635f36" stroke="#707070" stroke-width=".069"/><path data-name="路径 157" d="M89.27 43.864s-1.724.2-3.6 4.316l-2.39-9.066a12.548 12.548 0 0 0 4.2 0c1.074-.181 1.79 4.75 1.79 4.75Z" fill="#777342" stroke="#707070" stroke-width=".069"/><g data-name="组 66" transform="translate(85.287 39.104)" stroke="#707070" stroke-width=".069"><circle data-name="椭圆 7" cx="2.581" cy="2.581" r="2.581" fill="#e3e2d6"/><circle data-name="椭圆 8" cx="1.069" cy="1.069" r="1.069" transform="translate(2.198 1.079)" fill="#c0bfab"/><circle data-name="椭圆 9" cx=".696" cy=".696" r=".696" transform="translate(2.571 1.452)" fill="#010400"/><circle data-name="椭圆 10" cx=".434" cy=".434" r=".434" transform="translate(2.007 1.936)" fill="#efeee4"/></g><path data-name="路径 158" d="M72.37 31.219s-3.953 3.993-6.292 5.112l3.146 2.058 6.02-3.68Z" fill="#c0bfab" stroke="#707070" stroke-width=".069"/><path data-name="路径 159" d="M65.17 71.916s.3-12-4.134-17.142-3.832-3.832-4.336-7.865l4.386-7.966s7.311-4.134 9.63-4.235 12.1 1.613 12.1 1.613 4.033 5.042 3.529 8.874-3.933 8.47-4.336 13.915-1.311 12.806-1.311 12.806Z" fill="#c0bfab" stroke="#707070" stroke-width=".069"/><path data-name="路径 160" d="M81.949 55.207c-.645 2.107-.9 6.776-6.948 6.776a9.562 9.562 0 0 1-8.42-4.437l-3.4 1.039c2.178 5.7 1.986 13.341 1.986 13.341h15.532s.908-7.361 1.311-12.806a14.826 14.826 0 0 1 .373-2.319Z" fill="#a09c70" stroke="#707070" stroke-width=".069"/><g data-name="组 68"><path data-name="路径 161" d="M84.551 44.373s-1.976-3.771-7.623-3.136-9.862 3.136-10.316 6.549 4.487 2.067 6.453.988 8.794-4.931 11.486-4.401Z" fill="#ea6e6e" stroke="#707070" stroke-width=".069"/><path data-name="路径 162" d="M68.77 50.468a2.787 2.787 0 0 1-2.188-.787 2.386 2.386 0 0 1-.474-1.956c.474-3.57 4.689-6.312 10.759-6.978a11.444 11.444 0 0 1 1.291-.071c4.951 0 6.756 3.338 6.827 3.479l.494.938-1.036-.211a2.245 2.245 0 0 0-.474-.04c-2.682 0-8.218 3.035-10.305 4.185-.131.071-.262.141-.363.2a10.7 10.7 0 0 1-4.528 1.24Z" fill="#e88f70" stroke="#707070" stroke-width=".069"/><path data-name="路径 163" d="M84.551 44.373s-1.976-3.771-7.623-3.136-9.862 3.136-10.316 6.549 4.487 2.067 6.453.988 8.794-4.931 11.486-4.401Z" fill="#ea6e6e" stroke="#707070" stroke-width=".069"/><path data-name="路径 164" d="M73.066 48.774a55.066 55.066 0 0 1 8.389-3.953 9.025 9.025 0 0 0-4.538-.555c-4.85.534-8.631 2.46-9.9 5.153 1.209 1.19 4.516.192 6.049-.645Z" fill="#af5454" stroke="#707070" stroke-width=".069"/><path data-name="路径 165" d="M77.412 45.346v-4.145c-.161.01-.323.03-.484.04a20.648 20.648 0 0 0-3.852.787c.121.877.252 1.734.373 2.259.3 1.412 1.26 2.662 2.118 2.662.836 0 1.845-1.603 1.845-1.603Z" fill="#e3e2d6" stroke="#707070" stroke-width=".069"/><path data-name="路径 166" d="M76.928 41.242a20.648 20.648 0 0 0-3.852.787c.05.333.091.655.141.968a21.382 21.382 0 0 1 3.711-.746c.161-.02.323-.03.484-.04v-1.01c-.162.01-.323.02-.484.041Z" fill="#d8d7c8" stroke="#707070" stroke-width=".069"/><g data-name="组 67"><path data-name="路径 167" d="M77.412 43.601v1.744a.125.125 0 0 0 .03.02Z" fill="#e3e2d6" stroke="#707070" stroke-width=".069"/></g><path data-name="路径 168" d="M80.951 43.722c.1-.464.222-1.22.323-2a8.852 8.852 0 0 0-3.872-.524v4.144a4.18 4.18 0 0 0 1.1.645c.575.252 1.139.151 1.795-.756a4.015 4.015 0 0 0 .654-1.509Z" fill="#efeee4" stroke="#707070" stroke-width=".069"/><path data-name="路径 169" d="M81.142 42.683c.05-.3.091-.625.141-.958a8.853 8.853 0 0 0-3.872-.524v1.008a8.821 8.821 0 0 1 3.731.474Z" fill="#d8d7c8" stroke="#707070" stroke-width=".069"/><path data-name="路径 170" d="m77.926 41.173-.514 4.175v-4.147Z" fill="#d8d7c8" stroke="#707070" stroke-width=".069"/><path data-name="路径 171" d="M76.695 46.254c-1.684.938-3.388-2.622-3.388-2.622.04.252.081.464.121.645.3 1.412 1.26 2.662 2.118 2.662a1.779 1.779 0 0 0 1.15-.686Z" fill="#efeee4" stroke="#707070" stroke-width=".069"/><path data-name="路径 172" d="M71.523 42.593s-.494 1.785-1.956 1.049a9.69 9.69 0 0 1 1.956-1.049Z" fill="#d8d7c8" stroke="#707070" stroke-width=".069"/></g><g data-name="组 69" stroke="#707070" stroke-width=".069"><path data-name="路径 173" d="M75.244 29.182s-5.072 2.712-4.7 5.435 4.467 3.761 4.467 3.761Z" fill="#964545"/><path data-name="路径 174" d="M78.278 37.983s4.185 1.916 4.991-1.361-.756-8.016-4.033-8.218-8.067 1.412-5.748 8.218c.001.001.706 3.228 4.79 1.361Z" fill="#af5454"/><path data-name="路径 175" d="M77.411 36.26s.01-3.126-1.634-2.823-.867 4.033.918 3.933c0-.001.757-.478.716-1.11Z" fill="#662d2d"/><path data-name="路径 176" d="M75.072 31.843s1-.837.464-1.281-1.523.817-1.008 1.351a.562.562 0 0 0 .544-.07Z" fill="#db8686"/><path data-name="路径 177" d="M80.143 36.099s-.01-2.541 1.331-2.3.706 3.277-.746 3.2c-.009.011-.624-.375-.585-.9Z" fill="#662d2d"/></g><path data-name="路径 178" d="M66.078 36.331a91.692 91.692 0 0 0-5.395 2.723 9.022 9.022 0 0 0-4.3 7.22c-.252 4.054.212 3.368 4.649 8.511s4.138 17.14 4.138 17.14h2.925c0-7.855 0-13.875-5.143-21.952s3.126-13.642 3.126-13.642Z" fill="#777342" stroke="#707070" stroke-width=".069"/><path data-name="路径 179" d="M86.779 44.317c-1.4 2.329-4.608 8.107-5.4 13.613a105.267 105.267 0 0 0-.837 13.976h.151s.908-7.361 1.311-12.806 4.23-10.084 4.735-13.92a3.5 3.5 0 0 0 .04-.863Z" fill="#777342" stroke="#707070" stroke-width=".069"/></g></g><g data-name="组 72" clip-path="url(#c)" transform="translate(459.714 193.181)"><path data-name="路径 180" d="M34.765 57.124v2.984h-4.353l5.353 2.118-5.354 1.341 2.692 1.079 1.24 4.538-1.24 2.723v3.328l-6.02 2.733-9.457 3.01-6.837-3.015-1.553-6.05-5.837-2.86 7.391-4.1H4.851l5.939-3.933-7.391-1.517-1.321-2.38Z" fill="#4da3b8" stroke="#707070" stroke-width=".069"/></g><g data-name="组 73" clip-path="url(#c)" transform="translate(459.714 193.181)"><path data-name="路径 181" d="m92.839 57.124 13.714 2.682 8.269 2.42-1.517 3.328 3.832 1.21-5.344 2.289 5.344 2.854-2.319 3.933 2.319 9.529-2.319 2.581 2.319 1.815v3.63l6.554 5.425h17.475v-41.7Z" fill="#74b3ba" stroke="#707070" stroke-width=".069"/></g><g data-name="组 74" clip-path="url(#c)" transform="translate(459.714 193.181)"><path data-name="路径 182" d="m65.17 71.916-1.986 2.41h-3.58l5.566 2.118-4.316 1.523h4.568v5.434l-3.207 3.64-3.892 3.328 3.892-1.21-6.1 3.933-4.265 4.235 5.1-1.21 2.551 2.7h18.677l8.612-3.606h-5.618l5.218-3.329-6.242-1.21-1.966-5.3 6.181-3.176-3.075-1.21-.585-9.065Z" fill="#a09c70" stroke="#707070" stroke-width=".069"/></g><g data-name="组 75" clip-path="url(#c)" transform="translate(459.714 193.181)"><path data-name="路径 183" d="m43.813 69.056-6.746-1.684-8.349 1.684-6.368 2.85 9.277-2.269 4.144 2.269 9.166-2.269h6.1Z" fill="#86c2cc" stroke="#707070" stroke-width=".069"/></g><g data-name="组 76" clip-path="url(#c)" transform="translate(459.714 193.181)"><path data-name="路径 184" d="M98.758 73.418h-5.919l-8.248 2.723-10.931 1.825h10.447l5.506-2.269 10.689-2.279 9.62 2.279Z" fill="#86c2cc" stroke="#707070" stroke-width=".069"/></g><g data-name="组 77" clip-path="url(#c)" transform="translate(459.714 193.181)"><path data-name="路径 185" d="M49.167 79.468h-7.562l-8.5 1.513-4.387 4.386-8.369 1.976h8.369l6.04-3.943h21.353l-9.973-2.42 9.973-1.512Z" fill="#86c2cc" stroke="#707070" stroke-width=".069" opacity=".5"/></g><g data-name="组 78" clip-path="url(#c)" transform="translate(459.714 193.181)"><path data-name="路径 186" d="M95.058 87.347h-6.9l-14.5 4.538 13.131-2.273Z" fill="#86c2cc" stroke="#707070" stroke-width=".069" opacity=".5"/></g><g data-name="组 79" clip-path="url(#c)" transform="translate(459.714 193.181)"><path data-name="路径 187" d="m135.997 79.469-10.114-1.5-14.087 3.012 14.087-1.513Z" fill="#86c2cc" stroke="#707070" stroke-width=".069"/></g><g data-name="组 80" clip-path="url(#c)" transform="translate(459.714 193.181)"><path data-name="路径 188" d="m125.883 62.226-8.742-1.513-13.311 2.853H89.269l14.561 1.986 13.179-2.42Z" fill="#86c2cc" stroke="#707070" stroke-width=".069" opacity=".5"/></g><g data-name="组 81" clip-path="url(#c)" transform="translate(459.714 193.181)"><path data-name="路径 189" d="m73.66 15.408-26.916 5.979-10.978 3.519 13.7.666Z" fill="#86c2cc" stroke="#707070" stroke-width=".069"/></g><g data-name="组 82" clip-path="url(#c)" transform="translate(459.714 193.181)"><path data-name="路径 190" d="m25.252 5.294-2.837 1.7h-7.19l-4.436 2.858h6.2l5.425 2.793 6.161-3.67h6.131l5.456-3.681-7.976 1.684Z" fill="#6ab1e2" stroke="#707070" stroke-width=".069"/></g></g></g><g data-name="蒙版组 3" transform="translate(-168 -148)" clip-path="url(#d)"><g data-name="组 85"><path data-name="路径 191" d="m217.384 242.678-1.314-5.756 8.538-57.43a.715.715 0 0 1 .407-.55l2.331-.943Z" fill="#348ba2"/><path data-name="路径 192" d="m229.605 159.186-.271-4.331-17.871 48.725 2.794-.967Z" fill="#0e5e82"/><path data-name="路径 193" d="m257.757 203.58-.56-1.218h-42.934l-2.794 1.218Z" fill="#337f92"/><g data-name="组 84"><path data-name="路径 194" d="m194.825 148.58 34.509 6.275-17.866 48.726h46.289v14.471a1.365 1.365 0 0 1-1.365 1.365h-80.887a1.365 1.365 0 0 1-1.314-1.733l19.075-68.129a1.365 1.365 0 0 1 1.559-.975Z" fill="#cae8ed"/><path data-name="路径 195" d="M154.578 109.179h22.917a1.365 1.365 0 0 1 1.324 1.7l-15.828 63.05a1.364 1.364 0 0 1-1.324 1.033h-16.041a1.365 1.365 0 0 1-1.351-1.557l8.951-63.05a1.365 1.365 0 0 1 1.352-1.176Z" transform="translate(73.098 68.82)" fill="url(#e)"/></g><path data-name="路径 196" d="m90.479 78.729 19.378-11.217 16.018-5.843-27.055-4.92-3.269 3.865Z" transform="translate(96.862 91.987)" fill="url(#a)"/><path data-name="路径 197" d="M107.442 111.282S86.515 110.507 83 114.8s-15.328 16.485-15.328 16.485l6.532-23.329 47.146-35.137-4.143 10.9Z" transform="translate(106.938 84.886)" fill="url(#f)"/><path data-name="路径 198" d="m175.471 109.179 7.283 5.3-.462 14.06-2.642 10.524-17.494-2.605Z" transform="translate(65.191 68.82)" fill="url(#g)"/><path data-name="路径 199" d="m158.349 195.21-4.812-10.151-1.137-23.289.96-6.759 14.787 8.069-2.552 32.085Z" transform="translate(69.504 48.569)" fill="url(#h)"/><path data-name="路径 200" d="m80.439 126.649 2.19-3.123v-2.292l-.3-1.327Z" transform="translate(101.299 64.08)" opacity=".41" fill="url(#i)"/><path data-name="路径 201" d="m224.959 166.787-3.058 5.6-.2 3.293 2.173-2.9Z" fill="#0e5e82"/><path data-name="路径 202" d="m212.425 203.065.8-.095.271-.523Z" fill="#0e5e82"/></g></g><g data-name="蒙版组 4" transform="translate(24 -148)" clip-path="url(#d)"><g data-name="组 87"><path data-name="路径 203" d="m217.384 242.678-1.314-5.756 8.538-57.43a.715.715 0 0 1 .407-.55l2.331-.943Z" fill="#348ba2"/><path data-name="路径 204" d="m229.605 159.186-.271-4.331-17.871 48.725 2.794-.967Z" fill="#0e5e82"/><path data-name="路径 205" d="m257.757 203.58-.56-1.218h-42.934l-2.794 1.218Z" fill="#337f92"/><g data-name="组 86"><path data-name="路径 206" d="m194.825 148.58 34.509 6.275-17.866 48.726h46.289v14.471a1.365 1.365 0 0 1-1.365 1.365h-80.887a1.365 1.365 0 0 1-1.314-1.733l19.075-68.129a1.365 1.365 0 0 1 1.559-.975Z" fill="#cae8ed"/><path data-name="路径 207" d="M154.578 109.179h22.917a1.365 1.365 0 0 1 1.324 1.7l-15.828 63.05a1.364 1.364 0 0 1-1.324 1.033h-16.041a1.365 1.365 0 0 1-1.351-1.557l8.951-63.05a1.365 1.365 0 0 1 1.352-1.176Z" transform="translate(73.098 68.82)" fill="url(#e)"/></g><path data-name="路径 208" d="m90.479 78.729 19.378-11.217 16.018-5.843-27.055-4.92-3.269 3.865Z" transform="translate(96.862 91.987)" fill="url(#a)"/><path data-name="路径 209" d="M107.442 111.282S86.515 110.507 83 114.8s-15.328 16.485-15.328 16.485l6.532-23.329 47.146-35.137-4.143 10.9Z" transform="translate(106.938 84.886)" fill="url(#f)"/><path data-name="路径 210" d="m175.471 109.179 7.283 5.3-.462 14.06-2.642 10.524-17.494-2.605Z" transform="translate(65.191 68.82)" fill="url(#g)"/><path data-name="路径 211" d="m158.349 195.21-4.812-10.151-1.137-23.289.96-6.759 14.787 8.069-2.552 32.085Z" transform="translate(69.504 48.569)" fill="url(#h)"/><path data-name="路径 212" d="m80.439 126.649 2.19-3.123v-2.292l-.3-1.327Z" transform="translate(101.299 64.08)" opacity=".41" fill="url(#i)"/><path data-name="路径 213" d="m224.959 166.787-3.058 5.6-.2 3.293 2.173-2.9Z" fill="#0e5e82"/><path data-name="路径 214" d="m212.425 203.065.8-.095.271-.523Z" fill="#0e5e82"/></g></g></g></svg>