<?xml version="1.0" encoding="utf-8"?>
<!-- Generator: Adobe Illustrator 24.3.0, SVG Export Plug-In . SVG Version: 6.00 Build 0)  -->
<svg version="1.1" id="图层_1" xmlns="http://www.w3.org/2000/svg" xmlns:xlink="http://www.w3.org/1999/xlink" x="0px" y="0px"
	 viewBox="0 0 850 200" style="enable-background:new 0 0 850 200;" xml:space="preserve">
<style type="text/css">
	.st0{fill:#1E90FF;}
	.st1{fill:#2ED673;}
	.st2{fill:#FF4857;}
	.st3{fill:#FFA502;}
</style>
<g>
	<path class="st0" d="M77.4,18.6v70.2H28.8c-6.8,0-11.3-7.6-7.2-13.5l40.1-61.6C66.1,6.9,77.4,10.1,77.4,18.6z"/>
	<path class="st1" d="M171.5,89.3h-70.7v-49c0-6.8,7.7-11.2,13.5-7.2l61.7,40C183.2,78,180.1,89.3,171.5,89.3z"/>
	<path class="st2" d="M100.4,181.5v-70.6h49.1c6.8,0,11.3,7.6,7.2,13.5L116.6,186C111.6,193.2,100.4,190.1,100.4,181.5L100.4,181.5z
		"/>
	<path class="st3" d="M8.5,110.9h70.2v49c0,6.8-7.7,11.2-13.5,7.2L4,127.1C-3.2,122.1-0.1,110.9,8.5,110.9z"/>
</g>
<g>
	<path class="st0" d="M232.6,115.2l17.1-1.7c1,5.7,3.1,9.9,6.3,12.6c3.1,2.7,7.4,4,12.7,4c5.7,0,9.9-1.2,12.8-3.6
		c2.9-2.4,4.3-5.2,4.3-8.4c0-2.1-0.6-3.8-1.8-5.3c-1.2-1.4-3.3-2.7-6.3-3.8c-2.1-0.7-6.7-2-14.1-3.8c-9.4-2.3-16-5.2-19.8-8.6
		c-5.3-4.8-8-10.6-8-17.5c0-4.4,1.3-8.6,3.8-12.4c2.5-3.9,6.1-6.8,10.9-8.8c4.7-2,10.4-3,17.1-3c10.9,0,19.1,2.4,24.7,7.2
		c5.5,4.8,8.4,11.2,8.7,19.2l-17.6,0.8c-0.8-4.5-2.4-7.7-4.8-9.6c-2.5-2-6.2-2.9-11.1-2.9c-5.1,0-9.1,1-12,3.1
		c-1.9,1.3-2.8,3.1-2.8,5.4c0,2.1,0.9,3.8,2.6,5.3c2.2,1.9,7.6,3.8,16.1,5.8c8.5,2,14.9,4.1,19,6.3c4.1,2.2,7.3,5.1,9.6,8.8
		s3.5,8.4,3.5,13.9c0,5-1.4,9.7-4.2,14c-2.8,4.4-6.7,7.6-11.7,9.7c-5.1,2.1-11.4,3.2-18.9,3.2c-11,0-19.4-2.5-25.3-7.6
		C237.3,132.3,233.8,124.9,232.6,115.2z"/>
	<path class="st0" d="M317.6,143.5v-87h17.6v87H317.6z"/>
	<path class="st0" d="M371.5,143.5V71.2h-25.8V56.5h69.1v14.7H389v72.3H371.5z"/>
	<path class="st0" d="M426.1,143.5v-87h64.5v14.7h-46.9v19.3h43.7v14.7h-43.7v23.7h48.6v14.7H426.1z"/>
	<path class="st3" d="M507.3,143.5v-87h17.1l35.6,58.1V56.5h16.3v87h-17.6l-35.1-56.7v56.7H507.3z"/>
	<path class="st3" d="M673.3,143.5h-19.1l-7.6-19.8h-34.8l-7.2,19.8h-18.6l33.9-87h18.6L673.3,143.5z M641,109l-12-32.3L617.3,109
		H641z"/>
	<path class="st3" d="M682.4,143.5v-87h26.3l15.8,59.3l15.6-59.3h26.3v87h-16.3V75l-17.3,68.5h-16.9L698.7,75v68.5H682.4z"/>
	<path class="st3" d="M783.8,143.5v-87h64.5v14.7h-46.9v19.3h43.7v14.7h-43.7v23.7H850v14.7H783.8z"/>
</g>
</svg>
